<svg xmlns="http://www.w3.org/2000/svg" viewBox="0 0 24 24">
  <path d="M12 2C6.48 2 2 6.48 2 12s4.48 10 10 10 10-4.48 10-10S17.52 2 12 2zm6.93 6h-2.95a15.65 15.65 0 0 0-1.38-3.56A8.03 8.03 0 0 1 18.93 8zM12 4.04c.83 1.2 1.48 2.5 1.92 3.96h-3.84A15.31 15.31 0 0 1 12 4.04zM4.26 14A7.93 7.93 0 0 1 4 12c0-.69.09-1.36.26-2h3.36a16.55 16.55 0 0 0 0 4H4.26zm.81 2h2.95c.32 1.27.79 2.47 1.38 3.56A8.03 8.03 0 0 1 5.07 16zM8.02 8H5.07a8.03 8.03 0 0 1 4.33-3.56A15.65 15.65 0 0 0 8.02 8zM12 19.96A13.8 13.8 0 0 1 10.08 16h3.84A13.8 13.8 0 0 1 12 19.96zM14.34 14H9.66a14.64 14.64 0 0 1 0-4h4.68a14.64 14.64 0 0 1 0 4zm.26 5.56c.59-1.09 1.06-2.29 1.38-3.56h2.95a8.03 8.03 0 0 1-4.33 3.56zM16.38 14a16.55 16.55 0 0 0 0-4h3.36c.17.64.26 1.31.26 2s-.09 1.36-.26 2h-3.36z"/>
</svg>
